<svg xmlns="http://www.w3.org/2000/svg" width="81" height="82"><path fill="#fff" d="M80.796 40.833c0 22.29-18.132 40.423-40.423 40.423-22.29 0-40.423-18.134-40.423-40.423S18.083.41 40.373.41c22.29 0 40.423 18.134 40.423 40.423zm-3.368 0c0-20.432-16.623-37.054-37.055-37.054S3.32 20.4 3.32 40.833c0 20.432 16.622 37.055 37.054 37.055 20.432 0 37.055-16.623 37.055-37.055z"/><path fill="#fff" d="M56.446 39.417c.48.31.773.844.773 1.416a1.69 1.69 0 01-.773 1.417l-23.58 15.158a1.677 1.677 0 01-1.718.063 1.682 1.682 0 01-.878-1.479V25.675c0-.617.336-1.183.878-1.48a1.68 1.68 0 011.718.063zm-4.027 1.416L33.64 28.76v24.146z"/></svg>